# xmcd
#
# Track frame offsets:
#	150
#	13393
#	25413
#	33918
#	48360
#	58541
#	71190
#	82981
#	94268
#	106235
#	116978
#	131412
#	142435
#	150494
#	164752
#	176226
#
# Disc length: 2500 seconds
#
# Revision: 0
# Processed by: cddbd v1.4PL0 Copyright (c) Steve Scherf et al.
# Submitted via: audiograbber 1.80.04
#
DISCID=ea09c210
DTITLE=Jim Reeves - Special Edition
DYEAR=2002
DGENRE=Country
TTITLE0=A Woman's Love
TTITLE1=A Woman's Love
TTITLE2=From A Jack To A King
TTITLE3=Highway To Nowhere
TTITLE4=Home
TTITLE5=I'd Rather Have Jesus
TTITLE6=I'll Fly Away
TTITLE7=Where Do I Go To Throw The Picture Away  
TTITLE8=Your Old Love Letters
TTITLE9=There Will Be Peace In The Valley
TTITLE10=The Wreck Of Number Nine
TTITLE11=The Night Watch
TTITLE12=Till The End Of The World
TTITLE13=Streets Of Laredo
TTITLE14=Wagon Load Of Love
TTITLE15=It's Hard To Love Just One
EXTD=
EXTT0=
EXTT1=
EXTT2=
EXTT3=
EXTT4=
EXTT5=
EXTT6=
EXTT7=
EXTT8=
EXTT9=
EXTT10=
EXTT11=
EXTT12=
EXTT13=
EXTT14=
EXTT15=
PLAYORDER=
